<svg width="41" height="41" viewBox="0 0 41 41" fill="none" xmlns="http://www.w3.org/2000/svg">
<circle cx="20.5156" cy="20.7695" r="20" fill="#F2F4FC"/>
<path d="M9.18237 21.1028C9.18237 22.5474 9.4669 23.9778 10.0197 25.3124C10.5725 26.6469 11.3828 27.8596 12.4042 28.881C13.4256 29.9025 14.6383 30.7127 15.9729 31.2655C17.3074 31.8183 18.7378 32.1028 20.1824 32.1028C21.6269 32.1028 23.0573 31.8183 24.3919 31.2655C25.7265 30.7127 26.9391 29.9025 27.9605 28.881C28.982 27.8596 29.7922 26.6469 30.345 25.3124C30.8979 23.9778 31.1824 22.5474 31.1824 21.1028C31.1824 19.6583 30.8979 18.2279 30.345 16.8933C29.7922 15.5587 28.982 14.3461 27.9605 13.3247C26.9391 12.3032 25.7265 11.493 24.3919 10.9402C23.0573 10.3874 21.6269 10.1028 20.1824 10.1028C18.7378 10.1028 17.3074 10.3874 15.9729 10.9402C14.6383 11.493 13.4256 12.3032 12.4042 13.3247C11.3828 14.3461 10.5725 15.5587 10.0197 16.8933C9.4669 18.2279 9.18237 19.6583 9.18237 21.1028Z" stroke="#0E5CF4" stroke-linecap="round"/>
<path d="M23.0044 17.7704C22.8434 17.4562 22.6095 17.1972 22.3276 17.0211C22.0458 16.845 21.7267 16.7585 21.4044 16.7707H19.6267C19.1552 16.7707 18.703 16.9813 18.3696 17.3563C18.0362 17.7313 17.8489 18.2398 17.8489 18.7701C17.8489 19.3004 18.0362 19.8089 18.3696 20.1839C18.703 20.5589 19.1552 20.7695 19.6267 20.7695H21.4044C21.8759 20.7695 22.3281 20.9802 22.6615 21.3552C22.9949 21.7301 23.1822 22.2387 23.1822 22.769C23.1822 23.2992 22.9949 23.8078 22.6615 24.1828C22.3281 24.5577 21.8759 24.7684 21.4044 24.7684H19.6267C19.3044 24.7806 18.9853 24.694 18.7035 24.5179C18.4216 24.3418 18.1877 24.0828 18.0267 23.7687" stroke="#0E5CF4" stroke-linecap="round"/>
<path d="M20.5156 15.4362L20.5156 26.1029" stroke="#0E5CF4" stroke-linecap="round"/>
</svg>
