<svg width="20" height="20" viewBox="0 0 20 20" fill="none" xmlns="http://www.w3.org/2000/svg">
<path fill-rule="evenodd" clip-rule="evenodd" d="M4.00378 9.34592C4.00608 9.41181 4.03162 9.4583 4.10245 9.4537C4.18588 9.44778 4.30155 9.29154 4.34825 9.23563C4.44002 9.12599 4.52543 9.01076 4.61467 8.89915C5.22721 8.13356 5.82879 7.36249 6.32928 6.51664C6.606 6.04871 6.90871 5.49274 7.12656 4.99631C7.33958 4.5115 7.55951 4.06834 7.56927 3.49659C7.57135 3.38026 7.53331 3.26504 7.42093 3.26504C7.36973 3.26504 7.30877 3.28992 7.24288 3.34145C7.06889 3.47751 6.91551 3.656 6.77824 3.8278C6.47411 4.20747 6.21153 4.62859 5.93919 5.03117C5.37566 5.8643 4.95619 6.76256 4.59318 7.69589C4.42741 8.12249 4.23281 8.52047 4.10738 8.95825C4.04621 9.1602 3.99983 9.23344 4.00378 9.34592ZM11.8242 9.34592C11.8267 9.41181 11.8521 9.4583 11.9229 9.4537C12.0062 9.44778 12.1219 9.29154 12.1687 9.23563C12.2605 9.12599 12.3459 9.01076 12.4351 8.89915C13.0476 8.13356 13.6493 7.36249 14.1497 6.51664C14.4265 6.04871 14.7292 5.49274 14.947 4.99631C15.16 4.5115 15.38 4.06834 15.3898 3.49659C15.3918 3.38026 15.3538 3.26504 15.2414 3.26504C15.1902 3.26504 15.1292 3.28992 15.0632 3.34145C14.8894 3.47751 14.736 3.656 14.5987 3.8278C14.2946 4.20747 14.0319 4.62859 13.7597 5.03117C13.1961 5.8643 12.7767 6.76256 12.4136 7.69589C12.2479 8.12249 12.0533 8.52047 11.9278 8.95825C11.8667 9.1602 11.8203 9.23344 11.8242 9.34592ZM19.5426 10.0493C19.5454 10.2654 19.4235 10.4682 19.3236 10.6516C19.2131 10.8557 19.1099 11.0634 18.9962 11.2657C18.7608 11.6854 18.4822 12.1029 18.1858 12.4821C17.6234 13.2018 16.9028 13.7995 16.0423 13.7995C15.518 13.7995 15.1669 13.557 15.0075 13.3309C14.8859 13.1584 14.8102 12.9602 14.7674 12.754C14.0938 13.5685 13.2408 14.2541 12.2701 14.2541C11.7425 14.2541 11.4344 14.1472 11.0542 13.7743C10.6918 13.4191 10.5028 12.9177 10.4213 12.4093C10.4026 12.4337 10.3842 12.4582 10.3655 12.4821C9.80302 13.2018 9.08238 13.7995 8.22195 13.7995C7.69756 13.7995 7.3465 13.557 7.18709 13.3309C7.0655 13.1584 6.98985 12.9602 6.94698 12.754C6.27337 13.5685 5.42051 14.2541 4.44957 14.2541C3.92211 14.2541 3.61403 14.1472 3.23381 13.7743C2.71161 13.2624 2.5488 12.4473 2.55044 11.7447C2.50736 11.7619 2.46032 11.7829 2.40857 11.8083C1.81982 12.1618 1.18492 12.4347 0.4907 12.5859C-0.00288426 12.6933 -0.211742 11.936 0.281952 11.8286C1.10138 11.6501 1.9845 11.1874 2.64495 10.7201C2.69527 10.4181 2.76127 10.1177 2.831 9.81885C2.9936 9.12101 3.195 8.44181 3.44574 7.77237C3.70042 7.12233 3.92858 6.45947 4.25858 5.84101C4.42183 5.53512 4.57335 5.23582 4.73254 4.92752C4.90237 4.59806 5.18293 4.19087 5.38313 3.88038C5.82441 3.19614 6.66467 2 7.59559 2C7.84677 2 8.10102 2.09571 8.35022 2.32551C8.58112 2.53864 8.67025 2.86503 8.66916 3.18199C8.66674 3.83806 8.3921 4.56506 8.13215 5.20139C7.87078 5.84178 7.50536 6.47734 7.1633 7.07914C6.48771 8.26716 5.59911 9.31079 4.68759 10.312C4.45999 10.5574 4.2292 10.7979 3.98285 11.0244C3.73189 11.2552 3.58465 11.4776 3.57818 11.849C3.57818 12.4525 3.69395 13.2306 4.41185 13.2306C5.04599 13.2306 5.66127 12.6103 6.05081 12.1708C6.51326 11.6488 6.82748 11.1579 7.18051 10.5578C7.2362 10.463 7.28291 10.3739 7.32797 10.2854C7.37621 10.1547 7.42588 10.0255 7.47609 9.89844C7.62673 9.51713 7.80061 9.14842 7.97263 8.77675C8.13139 8.43348 8.25462 8.01401 8.54373 7.75307C8.66126 7.64716 8.82561 7.58489 8.98392 7.58489C9.26448 7.58489 9.46994 7.78169 9.46994 8.07508C9.46994 8.3632 9.27183 8.67424 9.15189 8.90568C8.9666 9.2631 8.79732 9.62797 8.63023 9.99416C8.45394 10.3811 8.27052 10.774 8.1531 11.1834C8.06637 11.485 7.96693 11.87 7.95674 12.2052C7.94698 12.5204 8.05278 12.6983 8.30089 12.6983C8.44561 12.6983 8.61039 12.6354 8.73943 12.5576C9.1122 12.3326 9.4092 12.0178 9.65764 11.6687C9.89456 11.3362 10.1075 11.0001 10.3219 10.6526C10.3943 10.5357 10.4731 10.4095 10.5477 10.2857C10.58 10.1297 10.6152 9.97409 10.6514 9.81885C10.814 9.12101 11.0154 8.44181 11.266 7.77237C11.5208 7.12233 11.7491 6.45947 12.079 5.84101C12.2422 5.53512 12.3937 5.23582 12.5528 4.92752C12.7228 4.59806 13.0033 4.19087 13.2035 3.88038C13.6449 3.19614 14.485 2 15.416 2C15.667 2 15.9214 2.09571 16.1706 2.32551C16.4015 2.53864 16.4905 2.86503 16.4895 3.18199C16.4871 3.83806 16.2125 4.56506 15.9525 5.20139C15.6912 5.84178 15.3259 6.47734 14.9837 7.07914C14.3081 8.26716 13.4194 9.31079 12.508 10.312C12.2804 10.5574 12.0496 10.7979 11.8032 11.0244C11.5523 11.2552 11.405 11.4776 11.3986 11.849C11.3986 12.4525 11.5142 13.2306 12.2322 13.2306C12.8664 13.2306 13.4817 12.6103 13.8712 12.1708C14.3336 11.6488 14.6479 11.1579 15.0009 10.5578C15.0566 10.463 15.1033 10.3739 15.1484 10.2854C15.1966 10.1547 15.2463 10.0255 15.2965 9.89844C15.4471 9.51713 15.6211 9.14842 15.7929 8.77675C15.9519 8.43348 16.075 8.01401 16.3641 7.75307C16.4818 7.64716 16.6461 7.58489 16.8042 7.58489C17.0849 7.58489 17.2904 7.78169 17.2904 8.07508C17.2904 8.3632 17.0922 8.67424 16.9722 8.90568C16.787 9.2631 16.6176 9.62797 16.4506 9.99416C16.2743 10.3811 16.0909 10.774 15.9735 11.1834C15.8868 11.485 15.7874 11.87 15.777 12.2052C15.7674 12.5204 15.8732 12.6983 16.1213 12.6983C16.266 12.6983 16.4308 12.6354 16.5598 12.5576C16.9326 12.3326 17.2295 12.0178 17.478 11.6687C17.7149 11.3362 17.9278 11.0001 18.1423 10.6526C18.2454 10.4859 18.362 10.3003 18.4599 10.1303C18.5584 9.95896 18.6165 9.77971 18.796 9.68191C18.9004 9.62501 18.9918 9.60177 19.0803 9.60177C19.3199 9.60177 19.5388 9.77302 19.5426 10.0493ZM17.4034 5.97336C17.4984 6.04254 17.6134 6.07335 17.7295 6.07335C17.8376 6.07335 17.9469 6.04671 18.0417 6.00011C18.3894 5.82919 18.7027 5.27958 18.7027 4.88061C18.7027 4.44941 18.4206 4.20284 18.073 4.20284C17.987 4.20284 17.8989 4.22038 17.8141 4.25799C17.383 4.44941 17.17 4.91065 17.17 5.35984C17.17 5.58459 17.2085 5.83116 17.4034 5.97336ZM9.34969 5.35984C9.34969 4.91065 9.56282 4.44941 9.9938 4.25799C10.0785 4.22038 10.1667 4.20284 10.2527 4.20284C10.6003 4.20284 10.8825 4.44941 10.8825 4.88061C10.8825 5.27958 10.5691 5.82919 10.2215 6.00011C10.1266 6.04671 10.0173 6.07335 9.90916 6.07335C9.79306 6.07335 9.67805 6.04254 9.5831 5.97336C9.38817 5.83116 9.34969 5.58459 9.34969 5.35984Z" fill="white"/>
</svg>
