<svg width="32" height="20" viewBox="0 0 32 20" fill="none" xmlns="http://www.w3.org/2000/svg">
<path fill-rule="evenodd" clip-rule="evenodd" d="M6.5346 11.9893C6.53835 12.0969 6.58005 12.1728 6.69564 12.1652C6.83181 12.1556 7.02059 11.9006 7.09682 11.8093C7.24659 11.6304 7.38599 11.4423 7.53164 11.2602C8.53138 10.0106 9.51321 8.75216 10.3301 7.37165C10.7817 6.60794 11.2758 5.70054 11.6313 4.8903C11.979 4.09903 12.3379 3.37576 12.3539 2.4426C12.3573 2.25274 12.2952 2.06468 12.1118 2.06468C12.0282 2.06468 11.9287 2.1053 11.8212 2.1894C11.5372 2.41146 11.2869 2.70277 11.0628 2.98317C10.5664 3.60284 10.1379 4.29014 9.6934 4.9472C8.77366 6.30696 8.08904 7.77301 7.49657 9.29631C7.22602 9.99256 6.9084 10.6421 6.70369 11.3566C6.60385 11.6862 6.52815 11.8058 6.5346 11.9893ZM19.2984 11.9893C19.3024 12.0969 19.3439 12.1728 19.4595 12.1652C19.5955 12.1556 19.7843 11.9006 19.8607 11.8093C20.0104 11.6304 20.1498 11.4423 20.2955 11.2602C21.295 10.0106 22.2771 8.75216 23.0939 7.37165C23.5456 6.60794 24.0396 5.70054 24.3952 4.8903C24.7428 4.09903 25.1018 3.37576 25.1179 2.4426C25.1211 2.25274 25.059 2.06468 24.8756 2.06468C24.792 2.06468 24.6926 2.1053 24.5848 2.1894C24.301 2.41146 24.0507 2.70277 23.8267 2.98317C23.3303 3.60284 22.9016 4.29014 22.4572 4.9472C21.5375 6.30696 20.8529 7.77301 20.2604 9.29631C19.9899 9.99256 19.6722 10.6421 19.4675 11.3566C19.3677 11.6862 19.292 11.8058 19.2984 11.9893ZM31.8956 13.1373C31.9003 13.49 31.7013 13.8211 31.5383 14.1204C31.3579 14.4534 31.1894 14.7925 31.0038 15.1227C30.6196 15.8076 30.1649 16.489 29.6813 17.108C28.7633 18.2825 27.5871 19.2581 26.1828 19.2581C25.3271 19.2581 24.754 18.8623 24.4938 18.4933C24.2954 18.2117 24.1719 17.8882 24.1019 17.5518C23.0025 18.8811 21.6104 20 20.0261 20C19.165 20 18.6622 19.8255 18.0416 19.217C17.4502 18.6372 17.1418 17.8189 17.0086 16.9892C16.9782 17.0289 16.9481 17.069 16.9175 17.108C15.9996 18.2825 14.8234 19.2581 13.4191 19.2581C12.5632 19.2581 11.9903 18.8623 11.7301 18.4933C11.5317 18.2117 11.4082 17.8882 11.3382 17.5518C10.2388 18.8811 8.84686 20 7.26218 20C6.40131 20 5.89849 19.8255 5.27793 19.217C4.42564 18.3815 4.15992 17.0511 4.1626 15.9044C4.09228 15.9325 4.01551 15.9667 3.93105 16.0082C2.97015 16.5851 1.93392 17.0305 0.800875 17.2773C-0.00470743 17.4526 -0.345586 16.2167 0.460176 16.0413C1.79757 15.75 3.23892 14.9949 4.31685 14.2321C4.39898 13.7393 4.5067 13.249 4.62051 12.7612C4.88587 11.6223 5.21458 10.5137 5.62382 9.42113C6.03949 8.3602 6.41186 7.27834 6.95047 6.26894C7.21691 5.76971 7.4642 5.2812 7.72402 4.77803C8.0012 4.24031 8.4591 3.57574 8.78584 3.06898C9.50607 1.95222 10.8775 0 12.3968 0C12.8068 0 13.2217 0.156214 13.6285 0.53127C14.0053 0.879127 14.1508 1.41183 14.149 1.92914C14.1451 2.99991 13.6968 4.18645 13.2726 5.22502C12.846 6.2702 12.2496 7.30751 11.6913 8.2897C10.5887 10.2287 9.13835 11.932 7.65066 13.5661C7.27918 13.9665 6.90251 14.3591 6.50044 14.7288C6.09085 15.1055 5.85053 15.4686 5.83997 16.0746C5.83997 17.0597 6.02893 18.3296 7.20062 18.3296C8.23561 18.3296 9.23981 17.3172 9.87558 16.5998C10.6303 15.7479 11.1432 14.9468 11.7194 13.9673C11.8103 13.8125 11.8865 13.6672 11.96 13.5226C12.0388 13.3093 12.1198 13.0985 12.2018 12.8911C12.4477 12.2688 12.7314 11.667 13.0122 11.0604C13.2713 10.5001 13.4724 9.81551 13.9443 9.38964C14.1361 9.21678 14.4043 9.11515 14.6627 9.11515C15.1206 9.11515 15.456 9.43634 15.456 9.91518C15.456 10.3854 15.1326 10.8931 14.9369 11.2708C14.6345 11.8542 14.3582 12.4497 14.0855 13.0473C13.7977 13.6788 13.4984 14.3201 13.3067 14.9883C13.1652 15.4805 13.0029 16.109 12.9863 16.656C12.9703 17.1704 13.143 17.4609 13.5479 17.4609C13.7841 17.4609 14.0531 17.3581 14.2637 17.2311C14.8721 16.8639 15.3568 16.3502 15.7623 15.7804C16.149 15.2377 16.4965 14.6891 16.8465 14.122C16.9646 13.9311 17.0933 13.7251 17.2149 13.5231C17.2677 13.2685 17.3252 13.0146 17.3842 12.7612C17.6496 11.6223 17.9783 10.5137 18.3873 9.42113C18.8032 8.3602 19.1758 7.27834 19.7142 6.26894C19.9806 5.76971 20.2279 5.2812 20.4876 4.77803C20.7649 4.24031 21.2228 3.57574 21.5496 3.06898C22.27 1.95222 23.6412 0 25.1605 0C25.5703 0 25.9855 0.156214 26.3922 0.53127C26.769 0.879127 26.9143 1.41183 26.9127 1.92914C26.9088 2.99991 26.4605 4.18645 26.0363 5.22502C25.6097 6.2702 25.0135 7.30751 24.455 8.2897C23.3524 10.2287 21.9019 11.932 20.4144 13.5661C20.0429 13.9665 19.6662 14.3591 19.2641 14.7288C18.8546 15.1055 18.6142 15.4686 18.6037 16.0746C18.6037 17.0597 18.7925 18.3296 19.9643 18.3296C20.9993 18.3296 22.0035 17.3172 22.6393 16.5998C23.3941 15.7479 23.9069 14.9468 24.4831 13.9673C24.574 13.8125 24.6502 13.6672 24.7238 13.5226C24.8025 13.3093 24.8835 13.0985 24.9655 12.8911C25.2114 12.2688 25.4953 11.667 25.7757 11.0604C26.0352 10.5001 26.2361 9.81551 26.708 9.38964C26.9 9.21678 27.1682 9.11515 27.4263 9.11515C27.8843 9.11515 28.2199 9.43634 28.2199 9.91518C28.2199 10.3854 27.8963 10.8931 27.7004 11.2708C27.3982 11.8542 27.1217 12.4497 26.8492 13.0473C26.5615 13.6788 26.2621 14.3201 26.0704 14.9883C25.9289 15.4805 25.7668 16.109 25.7498 16.656C25.734 17.1704 25.9067 17.4609 26.3117 17.4609C26.5479 17.4609 26.8168 17.3581 27.0274 17.2311C27.6358 16.8639 28.1204 16.3502 28.526 15.7804C28.9127 15.2377 29.26 14.6891 29.6102 14.122C29.7784 13.8499 29.9688 13.5469 30.1286 13.2696C30.2893 12.9899 30.3841 12.6973 30.677 12.5377C30.8476 12.4448 30.9966 12.4069 31.141 12.4069C31.5322 12.4069 31.8894 12.6864 31.8956 13.1373ZM28.4043 6.48496C28.5592 6.59787 28.747 6.64815 28.9364 6.64815C29.1129 6.64815 29.2913 6.60467 29.4461 6.52862C30.0135 6.24965 30.5249 5.35263 30.5249 4.70148C30.5249 3.99771 30.0645 3.59527 29.4971 3.59527C29.3568 3.59527 29.2129 3.62391 29.0746 3.68528C28.371 3.99771 28.0233 4.7505 28.0233 5.48362C28.0233 5.85044 28.0861 6.25288 28.4043 6.48496ZM15.2597 5.48362C15.2597 4.7505 15.6076 3.99771 16.311 3.68528C16.4493 3.62391 16.5932 3.59527 16.7334 3.59527C17.3009 3.59527 17.7614 3.99771 17.7614 4.70148C17.7614 5.35263 17.2499 6.24965 16.6826 6.52862C16.5277 6.60467 16.3493 6.64815 16.1728 6.64815C15.9833 6.64815 15.7956 6.59787 15.6407 6.48496C15.3225 6.25288 15.2597 5.85044 15.2597 5.48362Z" fill="#0E5CF4"/>
</svg>
