<svg width="215" height="57" viewBox="0 0 215 57" fill="none" xmlns="http://www.w3.org/2000/svg">
<path d="M80.9704 44.1886V32.6211H85.2066C86.0275 32.6211 86.7071 32.7566 87.2456 33.0277C87.7841 33.2951 88.187 33.6585 88.4543 34.1178C88.7217 34.5735 88.8553 35.0875 88.8553 35.6598C88.8553 36.1418 88.7668 36.5485 88.5899 36.8798C88.4129 37.2074 88.1757 37.471 87.8782 37.6706C87.5845 37.8664 87.2607 38.0095 86.9067 38.0998V38.2128C87.2908 38.2316 87.6654 38.3559 88.0307 38.5856C88.3997 38.8115 88.7047 39.1335 88.9457 39.5514C89.1867 39.9694 89.3072 40.4777 89.3072 41.0764C89.3072 41.6676 89.1679 42.1985 88.8892 42.6692C88.6143 43.1361 88.1888 43.507 87.6127 43.7819C87.0366 44.053 86.3005 44.1886 85.4043 44.1886H80.9704ZM82.7157 42.6918H85.2348C86.0708 42.6918 86.6695 42.5299 87.031 42.2061C87.3924 41.8822 87.5732 41.4775 87.5732 40.9917C87.5732 40.6265 87.4809 40.2913 87.2964 39.9863C87.1119 39.6813 86.8483 39.4385 86.5057 39.2577C86.1668 39.077 85.7639 38.9866 85.297 38.9866H82.7157V42.6918ZM82.7157 37.6254H85.0541C85.4457 37.6254 85.7978 37.5501 86.1103 37.3995C86.4266 37.2488 86.677 37.038 86.8615 36.7669C87.0498 36.492 87.1439 36.1681 87.1439 35.7954C87.1439 35.3171 86.9764 34.9161 86.6412 34.5923C86.3061 34.2685 85.7921 34.1065 85.0993 34.1065H82.7157V37.6254ZM96.7374 40.5907V35.513H98.4319V44.1886H96.7713V42.6862H96.6809C96.4814 43.1493 96.1613 43.5353 95.7207 43.8441C95.2839 44.1491 94.7398 44.3016 94.0884 44.3016C93.5311 44.3016 93.0378 44.1792 92.6086 43.9344C92.1831 43.6859 91.8479 43.3188 91.6032 42.833C91.3622 42.3473 91.2417 41.7467 91.2417 41.0313V35.513H92.9305V40.8279C92.9305 41.4191 93.0943 41.8898 93.4219 42.24C93.7495 42.5902 94.175 42.7653 94.6984 42.7653C95.0147 42.7653 95.3291 42.6862 95.6417 42.528C95.958 42.3699 96.2197 42.1308 96.4268 41.8107C96.6376 41.4906 96.7412 41.084 96.7374 40.5907ZM107.202 37.631L105.671 37.9021C105.607 37.7063 105.506 37.5199 105.366 37.343C105.231 37.166 105.046 37.021 104.813 36.9081C104.579 36.7951 104.288 36.7386 103.937 36.7386C103.459 36.7386 103.06 36.8459 102.74 37.0606C102.42 37.2714 102.26 37.5444 102.26 37.8796C102.26 38.1695 102.367 38.403 102.582 38.5799C102.797 38.7569 103.143 38.9019 103.621 39.0148L104.999 39.3311C105.798 39.5156 106.393 39.7999 106.784 40.184C107.176 40.5681 107.372 41.067 107.372 41.6808C107.372 42.2004 107.221 42.6636 106.92 43.0703C106.622 43.4732 106.206 43.7895 105.671 44.0192C105.141 44.2488 104.525 44.3637 103.824 44.3637C102.853 44.3637 102.06 44.1566 101.447 43.7424C100.833 43.3244 100.456 42.7314 100.317 41.9632L101.949 41.7147C102.051 42.1402 102.26 42.4621 102.576 42.6805C102.893 42.8952 103.305 43.0025 103.813 43.0025C104.367 43.0025 104.809 42.8876 105.141 42.6579C105.472 42.4245 105.638 42.1402 105.638 41.8051C105.638 41.5339 105.536 41.3061 105.333 41.1216C105.133 40.9371 104.826 40.7978 104.412 40.7037L102.943 40.3817C102.134 40.1972 101.535 39.9035 101.147 39.5006C100.763 39.0977 100.571 38.5875 100.571 37.9699C100.571 37.4578 100.714 37.0097 101 36.6256C101.287 36.2416 101.682 35.9422 102.187 35.7276C102.691 35.5092 103.269 35.4 103.921 35.4C104.858 35.4 105.596 35.6033 106.135 36.01C106.673 36.4129 107.029 36.9532 107.202 37.631ZM109.228 44.1886V35.513H110.917V44.1886H109.228ZM110.081 34.1743C109.788 34.1743 109.535 34.0764 109.324 33.8806C109.117 33.681 109.014 33.4438 109.014 33.1689C109.014 32.8903 109.117 32.6531 109.324 32.4573C109.535 32.2577 109.788 32.1579 110.081 32.1579C110.375 32.1579 110.625 32.2577 110.833 32.4573C111.043 32.6531 111.149 32.8903 111.149 33.1689C111.149 33.4438 111.043 33.681 110.833 33.8806C110.625 34.0764 110.375 34.1743 110.081 34.1743ZM114.878 39.0374V44.1886H113.189V35.513H114.81V36.925H114.918C115.117 36.4656 115.43 36.0966 115.855 35.818C116.284 35.5393 116.825 35.4 117.476 35.4C118.067 35.4 118.585 35.5242 119.029 35.7728C119.474 36.0175 119.818 36.3828 120.063 36.8685C120.308 37.3543 120.43 37.9549 120.43 38.6703V44.1886H118.741V38.8736C118.741 38.2448 118.578 37.7534 118.25 37.3995C117.922 37.0417 117.472 36.8629 116.9 36.8629C116.508 36.8629 116.16 36.9476 115.855 37.117C115.554 37.2865 115.315 37.535 115.138 37.8626C114.965 38.1864 114.878 38.578 114.878 39.0374ZM126.434 44.3637C125.58 44.3637 124.843 44.1811 124.226 43.8158C123.612 43.4468 123.138 42.929 122.802 42.2626C122.471 41.5923 122.305 40.8072 122.305 39.9073C122.305 39.0186 122.471 38.2354 122.802 37.5576C123.138 36.8798 123.605 36.3508 124.203 35.9705C124.806 35.5901 125.51 35.4 126.316 35.4C126.805 35.4 127.28 35.4809 127.739 35.6429C128.198 35.8048 128.611 36.0589 128.976 36.4054C129.341 36.7518 129.629 37.2018 129.84 37.7553C130.051 38.305 130.156 38.9734 130.156 39.7604V40.3591H123.26V39.0939H128.502C128.502 38.6496 128.411 38.2561 128.23 37.9134C128.05 37.567 127.795 37.294 127.468 37.0944C127.144 36.8949 126.764 36.7951 126.327 36.7951C125.853 36.7951 125.438 36.9118 125.084 37.1453C124.734 37.375 124.463 37.6762 124.271 38.049C124.083 38.418 123.989 38.819 123.989 39.2521V40.2405C123.989 40.8204 124.09 41.3137 124.294 41.7203C124.501 42.127 124.789 42.4377 125.158 42.6523C125.527 42.8632 125.958 42.9686 126.451 42.9686C126.771 42.9686 127.063 42.9234 127.327 42.833C127.59 42.7389 127.818 42.5996 128.01 42.4151C128.202 42.2306 128.349 42.0027 128.451 41.7316L130.049 42.0197C129.921 42.4904 129.691 42.9027 129.36 43.2566C129.032 43.6068 128.62 43.8798 128.123 44.0756C127.63 44.2677 127.067 44.3637 126.434 44.3637ZM138.531 37.631L137.001 37.9021C136.937 37.7063 136.835 37.5199 136.696 37.343C136.56 37.166 136.376 37.021 136.142 36.9081C135.909 36.7951 135.617 36.7386 135.267 36.7386C134.788 36.7386 134.389 36.8459 134.069 37.0606C133.749 37.2714 133.589 37.5444 133.589 37.8796C133.589 38.1695 133.696 38.403 133.911 38.5799C134.126 38.7569 134.472 38.9019 134.95 39.0148L136.329 39.3311C137.127 39.5156 137.722 39.7999 138.113 40.184C138.505 40.5681 138.701 41.067 138.701 41.6808C138.701 42.2004 138.55 42.6636 138.249 43.0703C137.951 43.4732 137.535 43.7895 137.001 44.0192C136.47 44.2488 135.854 44.3637 135.154 44.3637C134.182 44.3637 133.39 44.1566 132.776 43.7424C132.162 43.3244 131.785 42.7314 131.646 41.9632L133.278 41.7147C133.38 42.1402 133.589 42.4621 133.905 42.6805C134.222 42.8952 134.634 43.0025 135.142 43.0025C135.696 43.0025 136.138 42.8876 136.47 42.6579C136.801 42.4245 136.967 42.1402 136.967 41.8051C136.967 41.5339 136.865 41.3061 136.662 41.1216C136.462 40.9371 136.155 40.7978 135.741 40.7037L134.273 40.3817C133.463 40.1972 132.864 39.9035 132.476 39.5006C132.092 39.0977 131.9 38.5875 131.9 37.9699C131.9 37.4578 132.043 37.0097 132.33 36.6256C132.616 36.2416 133.011 35.9422 133.516 35.7276C134.02 35.5092 134.598 35.4 135.25 35.4C136.187 35.4 136.925 35.6033 137.464 36.01C138.002 36.4129 138.358 36.9532 138.531 37.631ZM147.059 37.631L145.528 37.9021C145.464 37.7063 145.362 37.5199 145.223 37.343C145.087 37.166 144.903 37.021 144.67 36.9081C144.436 36.7951 144.144 36.7386 143.794 36.7386C143.316 36.7386 142.917 36.8459 142.597 37.0606C142.277 37.2714 142.117 37.5444 142.117 37.8796C142.117 38.1695 142.224 38.403 142.438 38.5799C142.653 38.7569 143 38.9019 143.478 39.0148L144.856 39.3311C145.654 39.5156 146.249 39.7999 146.641 40.184C147.032 40.5681 147.228 41.067 147.228 41.6808C147.228 42.2004 147.078 42.6636 146.776 43.0703C146.479 43.4732 146.063 43.7895 145.528 44.0192C144.997 44.2488 144.381 44.3637 143.681 44.3637C142.71 44.3637 141.917 44.1566 141.303 43.7424C140.689 43.3244 140.313 42.7314 140.174 41.9632L141.806 41.7147C141.908 42.1402 142.117 42.4621 142.433 42.6805C142.749 42.8952 143.161 43.0025 143.67 43.0025C144.223 43.0025 144.666 42.8876 144.997 42.6579C145.328 42.4245 145.494 42.1402 145.494 41.8051C145.494 41.5339 145.392 41.3061 145.189 41.1216C144.99 40.9371 144.683 40.7978 144.268 40.7037L142.8 40.3817C141.99 40.1972 141.392 39.9035 141.004 39.5006C140.62 39.0977 140.428 38.5875 140.428 37.9699C140.428 37.4578 140.571 37.0097 140.857 36.6256C141.143 36.2416 141.539 35.9422 142.043 35.7276C142.548 35.5092 143.126 35.4 143.777 35.4C144.715 35.4 145.453 35.6033 145.991 36.01C146.53 36.4129 146.885 36.9532 147.059 37.631ZM153.43 44.1886V32.6211H157.666C158.487 32.6211 159.167 32.7566 159.705 33.0277C160.244 33.2951 160.646 33.6585 160.914 34.1178C161.181 34.5735 161.315 35.0875 161.315 35.6598C161.315 36.1418 161.226 36.5485 161.049 36.8798C160.872 37.2074 160.635 37.471 160.338 37.6706C160.044 37.8664 159.72 38.0095 159.366 38.0998V38.2128C159.75 38.2316 160.125 38.3559 160.49 38.5856C160.859 38.8115 161.164 39.1335 161.405 39.5514C161.646 39.9694 161.767 40.4777 161.767 41.0764C161.767 41.6676 161.627 42.1985 161.349 42.6692C161.074 43.1361 160.648 43.507 160.072 43.7819C159.496 44.053 158.76 44.1886 157.864 44.1886H153.43ZM155.175 42.6918H157.694C158.53 42.6918 159.129 42.5299 159.49 42.2061C159.852 41.8822 160.033 41.4775 160.033 40.9917C160.033 40.6265 159.94 40.2913 159.756 39.9863C159.571 39.6813 159.308 39.4385 158.965 39.2577C158.626 39.077 158.223 38.9866 157.756 38.9866H155.175V42.6918ZM155.175 37.6254H157.514C157.905 37.6254 158.257 37.5501 158.57 37.3995C158.886 37.2488 159.136 37.038 159.321 36.7669C159.509 36.492 159.603 36.1681 159.603 35.7954C159.603 35.3171 159.436 34.9161 159.101 34.5923C158.766 34.2685 158.252 34.1065 157.559 34.1065H155.175V37.6254ZM166.226 44.3806C165.676 44.3806 165.179 44.279 164.735 44.0756C164.29 43.8685 163.938 43.5692 163.679 43.1776C163.423 42.786 163.294 42.3059 163.294 41.7373C163.294 41.2478 163.389 40.8449 163.577 40.5286C163.765 40.2123 164.019 39.9619 164.339 39.7773C164.659 39.5928 165.017 39.4535 165.413 39.3594C165.808 39.2652 166.211 39.1937 166.621 39.1447C167.141 39.0845 167.563 39.0356 167.886 38.9979C168.21 38.9565 168.446 38.8906 168.592 38.8002C168.739 38.7098 168.813 38.563 168.813 38.3596V38.3201C168.813 37.8268 168.673 37.4446 168.395 37.1735C168.12 36.9024 167.709 36.7669 167.163 36.7669C166.595 36.7669 166.147 36.893 165.819 37.1453C165.495 37.3938 165.271 37.6706 165.147 37.9756L163.56 37.6141C163.748 37.0869 164.023 36.6614 164.385 36.3376C164.75 36.01 165.17 35.7728 165.644 35.6259C166.119 35.4753 166.618 35.4 167.141 35.4C167.487 35.4 167.854 35.4414 168.242 35.5242C168.634 35.6033 168.999 35.7502 169.338 35.9648C169.681 36.1794 169.961 36.4863 170.18 36.8855C170.398 37.2808 170.507 37.7948 170.507 38.4274V44.1886H168.858V43.0025H168.79C168.681 43.2209 168.517 43.4355 168.299 43.6464C168.08 43.8572 167.8 44.0323 167.457 44.1717C167.115 44.311 166.704 44.3806 166.226 44.3806ZM166.593 43.0251C167.06 43.0251 167.459 42.9328 167.79 42.7483C168.126 42.5638 168.38 42.3228 168.553 42.0253C168.73 41.7241 168.818 41.4021 168.818 41.0595V39.9411C168.758 40.0014 168.641 40.0579 168.468 40.1106C168.299 40.1595 168.105 40.2028 167.886 40.2405C167.668 40.2744 167.455 40.3064 167.248 40.3365C167.041 40.3629 166.868 40.3855 166.729 40.4043C166.401 40.4457 166.102 40.5154 165.831 40.6133C165.563 40.7112 165.349 40.8524 165.187 41.0369C165.028 41.2176 164.949 41.4586 164.949 41.7599C164.949 42.1778 165.104 42.4941 165.413 42.7088C165.721 42.9196 166.115 43.0251 166.593 43.0251ZM174.445 39.0374V44.1886H172.757V35.513H174.378V36.925H174.485C174.685 36.4656 174.997 36.0966 175.423 35.818C175.852 35.5393 176.392 35.4 177.044 35.4C177.635 35.4 178.153 35.5242 178.597 35.7728C179.041 36.0175 179.386 36.3828 179.631 36.8685C179.875 37.3543 179.998 37.9549 179.998 38.6703V44.1886H178.309V38.8736C178.309 38.2448 178.145 37.7534 177.817 37.3995C177.49 37.0417 177.04 36.8629 176.468 36.8629C176.076 36.8629 175.728 36.9476 175.423 37.117C175.121 37.2865 174.882 37.535 174.705 37.8626C174.532 38.1864 174.445 38.578 174.445 39.0374ZM183.816 41.2459L183.805 39.1843H184.098L187.555 35.513H189.577L185.635 39.6926H185.369L183.816 41.2459ZM182.263 44.1886V32.6211H183.951V44.1886H182.263ZM187.741 44.1886L184.635 40.0654L185.798 38.8849L189.814 44.1886H187.741ZM191.116 44.1886V35.513H192.805V44.1886H191.116ZM191.969 34.1743C191.675 34.1743 191.423 34.0764 191.212 33.8806C191.005 33.681 190.902 33.4438 190.902 33.1689C190.902 32.8903 191.005 32.6531 191.212 32.4573C191.423 32.2577 191.675 32.1579 191.969 32.1579C192.263 32.1579 192.513 32.2577 192.72 32.4573C192.931 32.6531 193.037 32.8903 193.037 33.1689C193.037 33.4438 192.931 33.681 192.72 33.8806C192.513 34.0764 192.263 34.1743 191.969 34.1743ZM196.766 39.0374V44.1886H195.077V35.513H196.698V36.925H196.805C197.005 36.4656 197.317 36.0966 197.743 35.818C198.172 35.5393 198.713 35.4 199.364 35.4C199.955 35.4 200.473 35.5242 200.917 35.7728C201.362 36.0175 201.706 36.3828 201.951 36.8685C202.196 37.3543 202.318 37.9549 202.318 38.6703V44.1886H200.629V38.8736C200.629 38.2448 200.465 37.7534 200.138 37.3995C199.81 37.0417 199.36 36.8629 198.788 36.8629C198.396 36.8629 198.048 36.9476 197.743 37.117C197.442 37.2865 197.203 37.535 197.026 37.8626C196.852 38.1864 196.766 38.578 196.766 39.0374ZM208.22 47.6227C207.531 47.6227 206.938 47.5323 206.441 47.3516C205.948 47.1709 205.545 46.9317 205.232 46.6343C204.92 46.3368 204.686 46.0111 204.532 45.6571L205.984 45.0584C206.085 45.2241 206.221 45.3992 206.39 45.5837C206.564 45.772 206.797 45.932 207.091 46.0638C207.388 46.1956 207.77 46.2615 208.237 46.2615C208.877 46.2615 209.406 46.1052 209.824 45.7927C210.242 45.4839 210.451 44.9906 210.451 44.3129V42.6071H210.344C210.242 42.7916 210.096 42.9968 209.903 43.2228C209.715 43.4487 209.455 43.6445 209.124 43.8102C208.793 43.9758 208.362 44.0587 207.831 44.0587C207.145 44.0587 206.528 43.8987 205.978 43.5786C205.432 43.2548 204.999 42.7784 204.679 42.1496C204.363 41.517 204.204 40.7394 204.204 39.8169C204.204 38.8943 204.361 38.1036 204.673 37.4446C204.99 36.7857 205.423 36.2811 205.972 35.9309C206.522 35.577 207.145 35.4 207.842 35.4C208.38 35.4 208.815 35.4904 209.147 35.6711C209.478 35.8481 209.736 36.0552 209.92 36.2924C210.109 36.5296 210.254 36.7386 210.355 36.9194H210.48V35.513H212.135V44.3806C212.135 45.1262 211.961 45.7381 211.615 46.2163C211.268 46.6945 210.8 47.0485 210.208 47.2782C209.621 47.5079 208.958 47.6227 208.22 47.6227ZM208.203 42.6579C208.689 42.6579 209.1 42.545 209.435 42.319C209.774 42.0893 210.03 41.7618 210.203 41.3363C210.38 40.907 210.468 40.393 210.468 39.7943C210.468 39.2106 210.382 38.6967 210.208 38.2523C210.035 37.808 209.781 37.4616 209.446 37.2131C209.111 36.9608 208.697 36.8346 208.203 36.8346C207.695 36.8346 207.271 36.9664 206.933 37.23C206.594 37.4898 206.338 37.8438 206.164 38.2919C205.995 38.74 205.91 39.2408 205.91 39.7943C205.91 40.3629 205.997 40.8618 206.17 41.2911C206.343 41.7203 206.599 42.0555 206.938 42.2964C207.281 42.5374 207.703 42.6579 208.203 42.6579Z" fill="#1E1E1E"/>
<path fill-rule="evenodd" clip-rule="evenodd" d="M15.0539 27.7333C15.0622 27.984 15.1518 28.1611 15.4013 28.1438C15.6947 28.1209 16.1017 27.5265 16.2662 27.3137C16.5892 26.8965 16.8897 26.4579 17.2042 26.033C19.3601 23.1195 21.4776 20.1848 23.2392 16.9654C24.2135 15.1848 25.2788 13.0686 26.0457 11.1791C26.7953 9.33412 27.5692 7.64755 27.6041 5.47167C27.6111 5.02877 27.4774 4.5902 27.0817 4.5902C26.9016 4.5902 26.6867 4.68491 26.4548 4.88108C25.8426 5.39912 25.3025 6.07836 24.8194 6.73197C23.7491 8.17702 22.8245 9.77962 21.8663 11.3118C19.8826 14.4827 18.4062 17.9014 17.1285 21.4534C16.5451 23.077 15.8601 24.5918 15.4188 26.2579C15.2029 27.0267 15.0399 27.3054 15.0539 27.7333ZM42.9025 27.7333C42.9108 27.984 43.0005 28.1611 43.2499 28.1438C43.5433 28.1209 43.9503 27.5265 44.1148 27.3137C44.4378 26.8965 44.7383 26.4579 45.0528 26.033C47.2087 23.1195 49.3262 20.1848 51.0878 16.9654C52.0621 15.1848 53.1274 13.0686 53.8943 11.1791C54.6439 9.33412 55.4179 7.64755 55.4527 5.47167C55.4599 5.02877 55.326 4.5902 54.9303 4.5902C54.7502 4.5902 54.5353 4.68491 54.3034 4.88108C53.6912 5.39912 53.1513 6.07836 52.668 6.73197C51.5977 8.17702 50.6731 9.77962 49.7149 11.3118C47.7312 14.4827 46.2548 17.9014 44.9771 21.4534C44.3936 23.077 43.7087 24.5918 43.2674 26.2579C43.0517 27.0267 42.8885 27.3054 42.9025 27.7333ZM70.357 30.4565C70.3668 31.2728 69.9336 32.0386 69.5795 32.7316C69.1864 33.5019 68.8195 34.2867 68.4158 35.0509C67.5795 36.6362 66.5899 38.2131 65.5373 39.6456C63.5388 42.3634 60.979 44.6212 57.9223 44.6212C56.0595 44.6212 54.8123 43.7048 54.2463 42.851C53.8142 42.1996 53.5456 41.4506 53.3932 40.6724C51.0003 43.7485 47.9702 46.3377 44.5214 46.3377C42.6475 46.3377 41.553 45.9341 40.2023 44.5256C38.9152 43.1842 38.2435 41.2905 37.9539 39.3705C37.8876 39.4622 37.8224 39.555 37.7558 39.6456C35.7573 42.3634 33.1974 44.6212 30.1407 44.6212C28.2779 44.6212 27.0309 43.7048 26.4646 42.851C26.0326 42.1996 25.764 41.4506 25.6116 40.6724C23.2188 43.7485 20.1887 46.3377 16.7398 46.3377C14.8659 46.3377 13.7715 45.9341 12.4205 44.5256C10.5657 42.5922 9.98696 39.5134 9.99311 36.8599C9.83973 36.9252 9.67279 37.0043 9.48903 37.1003C7.39775 38.4351 5.14227 39.4662 2.67572 40.037C0.922532 40.4429 0.180402 37.5826 1.93407 37.1768C4.84522 36.5029 7.98247 34.7552 10.3289 32.9902C10.3291 32.9899 10.3294 32.9894 10.3296 32.989C10.5087 31.8486 10.742 30.7149 10.9898 29.5862C11.5672 26.9503 12.2827 24.3852 13.1733 21.8569C14.0782 19.4013 14.889 16.8978 16.0612 14.5618C16.6408 13.4066 17.1796 12.2762 17.7444 11.1121C18.3482 9.86736 19.3449 8.32951 20.0558 7.15714C21.624 4.57252 24.6086 0.0546875 27.9156 0.0546875C28.8077 0.0546875 29.7111 0.416211 30.5963 1.28428C31.417 2.08911 31.7331 3.3218 31.7293 4.51908C31.7211 6.99699 30.7453 9.74261 29.8221 12.1461C28.8932 14.5649 27.5953 16.9653 26.3801 19.2383C23.9803 23.7253 20.823 27.6674 17.5854 31.4486C16.7767 32.3753 15.9567 33.284 15.0814 34.1394C14.1901 35.0112 13.6669 35.8515 13.6443 37.2539C13.6443 39.5335 14.0551 42.4723 16.6055 42.4723C18.8584 42.4723 21.0443 40.1296 22.4278 38.4693C24.0708 36.4979 25.1869 34.6437 26.441 32.377C26.639 32.0189 26.805 31.6826 26.9653 31.3482C27.1363 30.8548 27.3129 30.3668 27.4912 29.8869C28.0263 28.4468 28.6441 27.0541 29.255 25.6501C29.8191 24.3535 30.2566 22.7693 31.2839 21.784C31.7016 21.384 32.2855 21.1488 32.8474 21.1488C33.8444 21.1488 34.5744 21.8921 34.5744 23.0001C34.5744 24.0882 33.8704 25.263 33.4442 26.1371C32.786 27.487 32.1845 28.8654 31.5913 30.2484C30.9649 31.7094 30.3133 33.1938 29.8962 34.7399C29.5878 35.8793 29.2352 37.3337 29.1983 38.5993C29.1637 39.7899 29.5398 40.4618 30.4214 40.4618C30.9353 40.4618 31.5205 40.2243 31.9794 39.9303C33.3035 39.0803 34.3582 37.8914 35.2411 36.573C36.0824 35.3171 36.8389 34.0476 37.6008 32.7354C37.8577 32.2935 38.1378 31.8166 38.4024 31.3496C38.5179 30.7603 38.6425 30.1726 38.7714 29.5862C39.3488 26.9503 40.0643 24.3852 40.9549 21.8569C41.8598 19.4013 42.6706 16.8978 43.8428 14.5618C44.4223 13.4066 44.9612 12.2762 45.526 11.1121C46.1296 9.86736 47.1265 8.32951 47.8376 7.15714C49.4054 4.57252 52.3902 0.0546875 55.6972 0.0546875C56.5893 0.0546875 57.4927 0.416211 58.3778 1.28428C59.1985 2.08911 59.5146 3.3218 59.5109 4.51908C59.5025 6.99699 58.527 9.74261 57.6036 12.1461C56.6748 14.5649 55.3768 16.9653 54.1617 19.2383C51.7619 23.7253 48.6046 27.6674 45.367 31.4486C44.5583 32.3753 43.7382 33.284 42.8629 34.1394C41.9715 35.0112 41.4485 35.8515 41.4257 37.2539C41.4257 39.5335 41.8365 42.4723 44.3871 42.4723C46.6402 42.4723 48.8258 40.1296 50.2094 38.4693C51.8524 36.4979 52.9685 34.6437 54.2226 32.377C54.4206 32.0189 54.5865 31.6826 54.7469 31.3482C54.9179 30.8548 55.0945 30.3668 55.2728 29.8869C55.808 28.4468 56.4257 27.0541 57.0366 25.6501C57.6006 24.3535 58.0381 22.7693 59.0653 21.784C59.4833 21.384 60.067 21.1488 60.629 21.1488C61.626 21.1488 62.356 21.8921 62.356 23.0001C62.356 24.0882 61.6521 25.263 61.2258 26.1371C60.5677 27.487 59.966 28.8654 59.3729 30.2484C58.7465 31.7094 58.0949 33.1938 57.6777 34.7399C57.3695 35.8793 57.0167 37.3337 56.9799 38.5993C56.9455 39.7899 57.3214 40.4618 58.203 40.4618C58.7169 40.4618 59.3023 40.2243 59.7611 39.9303C61.085 39.0803 62.1397 37.8914 63.0226 36.573C63.864 35.3171 64.6203 34.0476 65.3825 32.7354C65.7486 32.1057 66.1629 31.4044 66.5106 30.7625C66.8606 30.1154 67.067 29.4382 67.7046 29.0691C68.0758 28.8542 68.4003 28.7662 68.7142 28.7662C69.566 28.7662 70.3436 29.4133 70.357 30.4565ZM62.5619 14.9672C62.902 15.2273 63.314 15.3431 63.7304 15.3431C64.1175 15.3431 64.5088 15.243 64.8489 15.068C66.0943 14.4261 67.217 12.362 67.217 10.8636C67.217 9.24406 66.2061 8.31802 64.9608 8.31802C64.6529 8.31802 64.337 8.3838 64.0334 8.52509C62.4892 9.24406 61.7258 10.9764 61.7258 12.6631C61.7258 13.5076 61.864 14.4336 62.5619 14.9672ZM34.2694 12.6631C34.2694 10.9764 35.0328 9.24406 36.577 8.52509C36.8806 8.3838 37.1965 8.31802 37.5043 8.31802C38.7498 8.31802 39.7606 9.24406 39.7606 10.8636C39.7606 12.362 38.6379 14.4261 37.3925 15.068C37.0526 15.243 36.6611 15.3431 36.274 15.3431C35.8576 15.3431 35.4456 15.2273 35.1055 14.9672C34.4076 14.4336 34.2694 13.5076 34.2694 12.6631Z" fill="#0E5CF4"/>
</svg>
